Format : MPEG-4
Format profile : Base Media / Version 2
Codec ID : mp42
File size : 346 MiB
Duration : 1h 23mn
Overall bit rate : 576 Kbps
Encoded date : UTC 2010-11-13 21:11:01
Tagged date : UTC 2010-11-13 21:11:26
Writing application : mp4creator 1.6.1d

Video
ID : 1
Format : AVC
Format/Info : Advanced Video Codec
Format profile : Baseline@L1.3
Format settings, CABAC : No
Format settings, ReFrames : 1 frame
Codec ID : avc1
Codec ID/Info : Advanced Video Coding
Duration : 1h 23mn
Bit rate mode : Variable
Bit rate : 511 Kbps
Width : 480 pixels
Height : 272 pixels
Display aspect ratio : 16:9
Original display aspect ratio : 16:9
Frame rate mode : Constant
Frame rate : 24.000 fps
Resolution : 24 bits
Colorimetry : 4:2:0
Scan type : Progressive
Bits/(Pixel*Frame) : 0.163
Stream size : 307 MiB (89%)
Encoded date : UTC 2010-11-13 21:11:01
Tagged date : UTC 2010-11-13 21:11:25

Audio
ID : 2
Format : AAC
Format/Info : Advanced Audio Codec
Format version : Version 4
Format profile : LC
Format settings, SBR : Yes
Format settings, PS : No
Codec ID : 40
Duration : 1h 23mn
Bit rate mode : Variable
Bit rate : 63.0 Kbps
Maximum bit rate : 101 Kbps
Channel(s) : 2 channels
Channel positions : L R
Sampling rate : 48.0 KHz
Resolution : 16 bits
Stream size : 37.8 MiB (11%)
Encoded date : UTC 2010-11-13 21:11:25
Tagged date : UTC 2010-11-13 21:11:26

Starring:
Michael Madsen
Jennifer Tisdale
Rachel Hunter
David Frank Fletcher Jr.
Nils Allen Stewart

An ice cold tale of misguided ambition and savage revenge. Set in the bowels of an iconic derelict Los Angeles high-rise, we follow Lauren and her real-estate investing fiance as they discover first hand what happens when a madman leads not with emotion, but rather chilling rationality. The Man in question brings a heaping helping of sanity and jet-black humor to the crazy table
 
http://www.imdb.com/title/tt1415284/

screens
 
http://img130.imageshack.us/img130/4568/brazenbullh264vicemp4sn.jpg 
http://img59.imageshack.us/img59/4568/brazenbullh264vicemp4sn.jpg 
http://img832.imageshack.us/img832/4568/brazenbullh264vicemp4sn.jpg 
http://img237.imageshack.us/img237/4568/brazenbullh264vicemp4sn.jpg